<?xml version="1.0" encoding="utf-8"?>
<!-- Generator: Adobe Illustrator 28.0.0, SVG Export Plug-In . SVG Version: 6.00 Build 0)  -->
<svg version="1.1" id="Layer_1" xmlns="http://www.w3.org/2000/svg" xmlns:xlink="http://www.w3.org/1999/xlink" x="0px" y="0px"
	 viewBox="0 0 289.42 244.48" style="enable-background:new 0 0 289.42 244.48;" xml:space="preserve">
<style type="text/css">
	.st0{fill:#28334E;}
	.st1{fill:#4EB9E5;}
</style>
<g>
	<g>
		<path class="st0" d="M93.54,163.78l-4.05,4.05c-1.28,1.29-2,3.04-2,4.86v9.95c0,1.82,0.72,3.57,2.01,4.86l4.06,4.02
			c1.29,1.29,3.04,2.02,4.86,2.01h21.51v-8.05H99.67c-0.49,0-0.95-0.19-1.3-0.53l-2.28-2.28c-0.34-0.35-0.53-0.81-0.53-1.3v-7.44
			c0-0.48,0.19-0.95,0.53-1.29l2.28-2.28c0.34-0.34,0.81-0.53,1.3-0.53h20.26v-8.05H98.4C96.57,161.77,94.82,162.49,93.54,163.78z"
			/>
		<path class="st0" d="M197.48,163.78c-1.29-1.29-3.04-2.01-4.86-2.01h-26.74v31.76h8.05v-6.34h18.64c1.82,0,3.57-0.72,4.86-2.01
			l2.92-2.91c1.28-1.29,2-3.04,2-4.86v-5.9c0.01-1.8-0.69-3.53-1.95-4.82L197.48,163.78z M194.35,176.18c0,0.48-0.19,0.95-0.53,1.29
			l-1.13,1.14c-0.34,0.34-0.81,0.53-1.3,0.53h-17.39v-9.33h17.39c0.49,0,0.95,0.19,1.3,0.53l1.13,1.14
			c0.34,0.34,0.53,0.81,0.53,1.29V176.18z"/>
		<polygon class="st0" points="127.04,169.83 139.06,169.83 139.06,193.54 147.11,193.54 147.11,169.83 159.13,169.83 
			159.13,161.77 127.04,161.77 		"/>
		<path class="st0" d="M65.95,161.82h-6.62c-2.16-0.01-4.13,1.21-5.1,3.14l-14.45,28.58h9.03l3.39-6.7h20.86l3.4,6.74h9.02
			l-14.44-28.62C70.07,163.03,68.1,161.82,65.95,161.82z M56.27,178.73l4.12-8.16c0.23-0.46,0.71-0.75,1.22-0.75h2.05
			c0.52,0,0.99,0.29,1.22,0.75l4.12,8.16H56.27z"/>
		<path class="st0" d="M235.22,164.96c-0.96-1.93-2.93-3.15-5.09-3.14h-6.63c-2.16,0-4.13,1.22-5.1,3.14l-14.44,28.62h9.02
			l3.43-6.74h20.86l3.4,6.74h8.96L235.22,164.96z M220.47,178.73l4.12-8.16c0.23-0.46,0.71-0.76,1.22-0.75h2.04
			c0.52,0,0.99,0.29,1.22,0.75l4.11,8.16H220.47z"/>
	</g>
	<path class="st1" d="M149.32,117.45l-12.46,0c-2.01,0-3.98,0.54-5.71,1.57l-29.08,17.32l0.89,1.5l22.2-6.33
		c1.99-0.57,4.05-0.85,6.12-0.85l23.61,0c2.07,0,4.13,0.29,6.12,0.85l22.2,6.33l0.89-1.5l-29.08-17.32
		C153.3,117.99,151.32,117.45,149.32,117.45z"/>
	<path class="st1" d="M134.04,50.91l-6.01,26.1c-0.53,2.28-1.41,4.47-2.62,6.48l-11.24,18.7c-0.93,1.54-2.03,2.96-3.3,4.24
		l-16.64,16.74l0.89,1.49l28.36-16.88c1.58-0.94,2.9-2.25,3.85-3.82l6.85-11.36c1.05-1.74,1.6-3.73,1.6-5.76l0-35.93L134.04,50.91z"
		/>
	<path class="st1" d="M152.13,50.91l6.01,26.1c0.53,2.28,1.41,4.47,2.62,6.48l11.24,18.7c0.93,1.54,2.03,2.96,3.3,4.24l16.64,16.74
		l-0.89,1.49l-28.36-16.88c-1.58-0.94-2.9-2.25-3.85-3.82l-6.85-11.36c-1.05-1.74-1.6-3.73-1.6-5.76l0-35.93L152.13,50.91z"/>
</g>
</svg>
