<svg width="40" height="40" viewBox="0 0 40 40" fill="none" xmlns="http://www.w3.org/2000/svg">
<path fill-rule="evenodd" clip-rule="evenodd" d="M6.6665 20C6.6665 19.0795 7.4127 18.3333 8.33317 18.3333L31.6665 18.3333C32.587 18.3333 33.3332 19.0795 33.3332 20C33.3332 20.9205 32.587 21.6667 31.6665 21.6667L8.33317 21.6667C7.4127 21.6667 6.6665 20.9205 6.6665 20ZM13.3332 11.6667C13.3332 10.7462 14.0794 10 14.9998 10L31.6665 10C32.587 10 33.3332 10.7462 33.3332 11.6667C33.3332 12.5871 32.587 13.3333 31.6665 13.3333L14.9998 13.3333C14.0794 13.3333 13.3332 12.5871 13.3332 11.6667ZM19.9998 28.3333C19.9998 27.4129 20.746 26.6667 21.6665 26.6667H31.6665C32.587 26.6667 33.3332 27.4129 33.3332 28.3333C33.3332 29.2538 32.587 30 31.6665 30H21.6665C20.746 30 19.9998 29.2538 19.9998 28.3333Z" fill="#232323"/>
</svg>
