<svg width="17" height="17" viewBox="0 0 17 17" fill="none" xmlns="http://www.w3.org/2000/svg">
<path fill-rule="evenodd" clip-rule="evenodd" d="M0.954505 0.954509C1.39384 0.515169 2.10616 0.515169 2.5455 0.954509L8.5 6.90901L14.4545 0.954509C14.8938 0.515169 15.6062 0.515169 16.0455 0.954509C16.4848 1.39385 16.4848 2.10616 16.0455 2.5455L10.091 8.5L16.0455 14.4545C16.4848 14.8938 16.4848 15.6062 16.0455 16.0455C15.6062 16.4848 14.8938 16.4848 14.4545 16.0455L8.5 10.091L2.5455 16.0455C2.10616 16.4848 1.39384 16.4848 0.954505 16.0455C0.515165 15.6062 0.515165 14.8938 0.954505 14.4545L6.90901 8.5L0.954505 2.5455C0.515165 2.10616 0.515165 1.39385 0.954505 0.954509Z" fill="#303B42"/>
</svg>
