<svg width="148" height="98" viewBox="0 0 148 98" fill="none" xmlns="http://www.w3.org/2000/svg">
<g clip-path="url(#clip0_93_50)">
<path d="M106.579 35.6482C106.557 37.9613 106.322 40.2745 105.848 42.535C105.379 44.7971 104.685 47.0061 103.778 49.1287C101.969 53.3679 99.3299 57.2238 96.0859 60.4483L94.8429 61.6284C94.4098 62.0005 93.9805 62.3782 93.5438 62.7465C93.0921 63.096 92.6498 63.4586 92.1962 63.8044L91.5 64.3023L91.151 64.5523C91.0353 64.6349 90.9195 64.7214 90.7982 64.7965C88.9019 66.0706 86.8898 67.168 84.7844 68.053C82.6781 68.9393 80.4899 69.6141 78.2518 70.0674C76.0128 70.5191 73.7357 70.7525 71.4522 70.7645C69.1666 70.7734 66.8856 70.5582 64.6415 70.1219C62.3949 69.684 60.1963 69.0257 58.0771 68.1563C53.8384 66.422 49.943 63.8326 46.6786 60.5874C43.4141 57.3441 40.788 53.4469 38.9943 49.1813C37.1969 44.9177 36.2562 40.2857 36.2207 35.6463C36.2058 33.3256 36.413 31.0012 36.846 28.7162C37.279 26.4312 37.9379 24.1895 38.8095 22.0323C40.5509 17.716 43.1491 13.7512 46.4061 10.4289C48.0355 8.76782 49.8254 7.26831 51.7479 5.95483L52.4777 5.47754L52.8435 5.23889C52.9648 5.15809 53.0862 5.07917 53.2131 5.00777L53.9653 4.56618L54.3423 4.34633L54.5308 4.23734L54.7249 4.13775L55.5014 3.73938L55.8896 3.54208L56.0837 3.44437L56.2816 3.35417L57.0767 2.99714C57.3436 2.88064 57.603 2.75098 57.8774 2.65139C62.1759 0.875654 66.8215 -0.0187908 71.4541 1.00292e-07C76.0867 0.0225491 80.7155 0.960213 84.9823 2.76977C89.2509 4.56994 93.15 7.2326 96.3976 10.536C99.6453 13.8414 102.24 17.7874 103.979 22.0849C105.724 26.3805 106.604 31.0218 106.579 35.6482ZM104.198 35.6482C104.171 31.3281 103.304 27.0269 101.641 23.0602C99.9831 19.0915 97.538 15.4649 94.5013 12.4433C91.4645 9.42174 87.8417 7.01087 83.8997 5.3911C79.9596 3.76569 75.7059 2.94641 71.4504 2.9652C67.1967 2.98775 62.9579 3.85025 59.0495 5.5076C58.8013 5.59968 58.5643 5.72182 58.3216 5.83081L57.5993 6.1634L57.4182 6.24608L57.2409 6.33816L56.8882 6.52231L56.1826 6.88873L56.0053 6.98081L55.8336 7.0804L55.4883 7.2777L54.7958 7.67231C54.6783 7.7362 54.5663 7.8076 54.4562 7.87901L54.1202 8.09323L53.4483 8.51978C51.6742 9.69659 50.0183 11.0446 48.504 12.5448C45.4766 15.5476 43.0371 19.1573 41.3797 23.1071C39.7185 27.0551 38.845 31.3394 38.8077 35.6463C38.7759 39.9513 39.5804 44.2638 41.193 48.2625C42.7982 52.263 45.2097 55.9404 48.2296 59.0221C51.2496 62.1038 54.878 64.588 58.848 66.2735C62.8179 67.9666 67.1276 68.8347 71.4485 68.861C75.7713 68.8817 80.0921 68.0361 84.092 66.3806C88.0937 64.7308 91.7688 62.2654 94.8074 59.1649C97.846 56.0644 100.244 52.3457 101.835 48.3188C103.432 44.292 104.227 39.9682 104.198 35.6482Z" fill="#555555"/>
<path d="M75.7583 21.104V28.8045H102.527C104.64 28.8045 106.352 30.5276 106.352 32.6548C106.352 34.7819 104.64 36.505 102.527 36.505H91.054V48.0558C91.054 50.1829 89.3425 51.906 87.2296 51.906C85.1168 51.906 83.4052 50.1829 83.4052 48.0558V36.505H75.7564V48.0558C75.7564 50.1829 74.0449 51.906 71.932 51.906C69.8192 51.906 68.1076 50.1829 68.1076 48.0558V41.3174L52.81 59.6046V36.505H41.3368C39.224 36.505 37.5124 34.7819 37.5124 32.6548C37.5124 30.5276 39.224 28.8045 41.3368 28.8045H60.4588V38.4292L75.7583 21.104ZM80.0082 9.85393L72.5834 18.2628L64.7106 27.1791V24.5277H41.3406C36.889 24.5277 33.2681 28.1731 33.2681 32.6548C33.2681 37.1364 36.889 40.7818 41.3406 40.7818H48.5638V71.3264L56.0633 62.3612L64.8189 51.8928C66.1814 54.4446 68.8598 56.1828 71.9339 56.1828C75.482 56.1828 78.502 53.8678 79.5827 50.6583C80.6634 53.8659 83.6833 56.1828 87.2315 56.1828C91.683 56.1828 95.304 52.5374 95.304 48.0558V40.7837H102.527C106.979 40.7837 110.6 37.1383 110.6 32.6566C110.6 28.175 106.979 24.5296 102.527 24.5296H80.0082V9.85393Z" fill="#555555"/>
<path d="M71.9338 51.906C69.8209 51.906 68.1094 50.1829 68.1094 48.0558V41.3174L52.8118 59.6046V36.505H41.3386C39.2257 36.505 37.5142 34.7819 37.5142 32.6548C37.5142 30.5276 39.2257 28.8045 41.3386 28.8045H60.4606V38.4292L75.7582 21.104V48.0539C75.7582 50.181 74.0466 51.906 71.9338 51.906Z" fill="url(#paint0_linear_93_50)"/>
<path d="M68.1094 32.6548C68.1094 34.7819 69.8209 36.505 71.9338 36.505L83.407 36.5069V48.0576C83.407 50.1848 85.1185 51.9079 87.2314 51.9079C89.3442 51.9079 91.0558 50.1848 91.0558 48.0576V36.5069H102.529C104.642 36.5069 106.353 34.7838 106.353 32.6566C106.353 30.5295 104.642 28.8064 102.529 28.8064L71.9356 28.8045C69.8228 28.8045 68.1094 30.5276 68.1094 32.6548Z" fill="url(#paint1_linear_93_50)"/>
<path d="M5.52289 92.9866L2.29763 86.4943H0L4.39181 95.3373C3.97558 96.0833 3.67322 96.0833 3.55003 96.0833C3.41191 96.0833 3.18233 96.0288 3.06475 95.9894L1.98966 95.6286V97.6336L2.54773 97.8215C2.63546 97.8515 3.10208 98 3.54816 98C5.07867 98 5.83832 96.835 6.3796 95.6943L10.7154 86.4962H8.56897L5.52289 92.9866ZM13.1362 97.658H15.1744V88.4091H19.891V97.658H21.9292V86.4925H13.1362V97.658ZM30.3003 86.4925H26.1063V97.6561H28.1445V94.1197H30.3003C32.6912 94.1197 34.4943 92.4792 34.4943 90.3051C34.4924 88.1329 32.6894 86.4925 30.3003 86.4925ZM30.3003 92.2049H28.1445V88.4091H30.3003C31.549 88.4091 32.4561 89.2077 32.4561 90.307C32.4561 91.4063 31.549 92.2049 30.3003 92.2049ZM40.4334 86.4925L35.6813 97.6561H37.7979L38.9458 94.9352H43.1342L44.282 97.6561H46.533L41.781 86.4925H40.4334ZM39.7745 93.0204L41.0381 90.0289L42.3017 93.0204H39.7745ZM56.2779 91.4006C56.6829 90.959 56.9871 90.354 56.9871 89.5591C56.9871 87.7834 55.507 86.4925 53.4688 86.4925H49.2748V97.6561H53.8738C56.1099 97.6561 57.7972 96.1622 57.7972 94.1817C57.7972 92.8043 57.0842 91.923 56.2779 91.4006ZM53.8738 95.7413H51.313V92.6239H53.8738C54.9657 92.6239 55.759 93.2797 55.759 94.1817C55.759 95.0836 54.9657 95.7413 53.8738 95.7413ZM53.4688 90.7091H51.313V88.4091H53.4688C54.3535 88.4091 54.9489 88.8714 54.9489 89.5591C54.9489 90.2469 54.3535 90.7091 53.4688 90.7091ZM68.2606 97.658H70.5116L65.7595 86.4943H64.4119L59.6599 97.658H61.7765L65.0185 90.0308L68.2606 97.658ZM75.2916 92.8964L79.7095 92.8945V90.9816H75.2916V88.4091L81.1952 88.4073V86.4925H73.2534V97.658H81.2363V95.7413H75.2916V92.8964ZM91.0185 91.1169H86.3019V86.4925H84.2637V97.658H86.3019V93.0336H91.0185V97.658H93.0567V86.4925H91.0185V91.1169ZM99.272 93.742V86.4925H97.2338V97.658H98.8763L103.989 90.4085V97.658H106.025V86.4925H104.382L99.272 93.742ZM112.24 92.8964L116.658 92.8945V90.9816H112.24V88.4091L118.144 88.4073V86.4925H110.202V97.658H118.185V95.7413H112.24V92.8964ZM129.059 93.742V86.4925H127.021V97.658H128.665L133.776 90.4085V97.658H135.814V86.4925H134.171L129.059 93.742ZM138.707 86.4925V88.4091H142.22V97.658H144.258V88.4091L148 88.4073V86.4925H138.707Z" fill="#555555"/>
</g>
<defs>
<linearGradient id="paint0_linear_93_50" x1="56.6362" y1="9.99824" x2="56.6362" y2="46.4974" gradientUnits="userSpaceOnUse">
<stop stop-color="#10447F"/>
<stop offset="1" stop-color="#2A8BCC"/>
</linearGradient>
<linearGradient id="paint1_linear_93_50" x1="87.2314" y1="28.8049" x2="87.2314" y2="51.9083" gradientUnits="userSpaceOnUse">
<stop stop-color="#00A9AA"/>
<stop offset="1" stop-color="#74C8DA"/>
</linearGradient>
<clipPath id="clip0_93_50">
<rect width="148" height="98" fill="white"/>
</clipPath>
</defs>
</svg>
