<?xml version="1.0" encoding="utf-8"?>
<!-- Generator: Adobe Illustrator 27.2.0, SVG Export Plug-In . SVG Version: 6.00 Build 0)  -->
<svg version="1.1" id="Слой_1" xmlns="http://www.w3.org/2000/svg" xmlns:xlink="http://www.w3.org/1999/xlink" x="0px" y="0px"
	 viewBox="0 0 148 98" style="enable-background:new 0 0 148 98;" xml:space="preserve">
<style type="text/css">
	.st0{clip-path:url(#SVGID_00000039851446427388825010000005825832018489924528_);}
	.st1{fill:#555555;}
	.st2{fill:url(#SVGID_00000026133609664167901300000017557680494154697359_);}
	.st3{fill:url(#SVGID_00000023254123094831134360000002821735142642329478_);}
</style>
<g>
	<g>
		<defs>
			<rect id="SVGID_1_" y="0" width="148" height="98"/>
		</defs>
		<clipPath id="SVGID_00000137120007648201130230000000895477338429162897_">
			<use xlink:href="#SVGID_1_"  style="overflow:visible;"/>
		</clipPath>
		<g style="clip-path:url(#SVGID_00000137120007648201130230000000895477338429162897_);">
			<path class="st1" d="M106.6,35.6c0,2.3-0.3,4.6-0.7,6.9c-0.5,2.3-1.2,4.5-2.1,6.6c-1.8,4.2-4.4,8.1-7.7,11.3l-1.2,1.2
				c-0.4,0.4-0.9,0.7-1.3,1.1c-0.5,0.3-0.9,0.7-1.3,1.1l-0.7,0.5l-0.3,0.2c-0.1,0.1-0.2,0.2-0.4,0.2C89,66,87,67.1,84.9,68
				s-4.3,1.6-6.5,2c-2.2,0.5-4.5,0.7-6.8,0.7s-4.6-0.2-6.8-0.6c-2.2-0.4-4.4-1.1-6.6-2c-4.2-1.7-8.1-4.3-11.4-7.6
				c-3.3-3.2-5.9-7.1-7.7-11.4s-2.7-8.9-2.8-13.5c0-2.3,0.2-4.6,0.6-6.9c0.4-2.3,1.1-4.5,2-6.7c1.7-4.3,4.3-8.3,7.6-11.6
				C48,8.8,49.8,7.3,51.7,6l0.7-0.5l0.4-0.2C53,5.2,53.1,5.1,53.2,5L54,4.6l0.4-0.2l0.2-0.1l0.2-0.1l0.8-0.4L56,3.6l0.2-0.1l0.2-0.1
				L57.1,3c0.3-0.1,0.5-0.2,0.8-0.3C62.2,0.9,66.8,0,71.5,0c4.6,0,9.3,1,13.5,2.8c4.3,1.8,8.2,4.5,11.4,7.8
				c3.2,3.3,5.8,7.3,7.6,11.5C105.7,26.4,106.6,31,106.6,35.6z M104.2,35.6c0-4.3-0.9-8.6-2.6-12.6s-4.1-7.6-7.1-10.6
				S87.8,7,83.9,5.3C80,3.8,75.7,2.9,71.5,3C67.2,3,63,3.9,59,5.5c-0.2,0.1-0.5,0.2-0.7,0.3l-0.7,0.3l-0.2,0.1l-0.2,0.1l-0.4,0.2
				l-0.7,0.4L56,7l-0.2,0.1l-0.3,0.2l-0.7,0.4c-0.1,0.1-0.2,0.1-0.3,0.2l-0.3,0.2l-0.7,0.4c-1.8,1.2-3.4,2.5-4.9,4
				c-3,3-5.5,6.6-7.1,10.6c-1.7,3.9-2.5,8.2-2.6,12.5c0,4.3,0.8,8.6,2.4,12.6c1.6,4,4,7.7,7,10.8s6.6,5.6,10.6,7.3s8.3,2.6,12.6,2.6
				c4.3,0,8.6-0.8,12.6-2.5c4-1.6,7.7-4.1,10.7-7.2c3-3.1,5.4-6.8,7-10.8C103.4,44.3,104.2,40,104.2,35.6z"/>
			<path class="st1" d="M75.8,21.1v7.7h26.8c2.1,0,3.8,1.7,3.8,3.9c0,2.1-1.7,3.9-3.8,3.9H91.1v11.6c0,2.1-1.7,3.9-3.8,3.9
				c-2.1,0-3.8-1.7-3.8-3.9V36.5h-7.6v11.6c0,2.1-1.7,3.9-3.8,3.9c-2.1,0-3.8-1.7-3.8-3.9v-6.7L52.8,59.6V36.5H41.3
				c-2.1,0-3.8-1.7-3.8-3.9c0-2.1,1.7-3.9,3.8-3.9h19.1v9.6L75.8,21.1z M80,9.9l-7.4,8.4l-7.9,8.9v-2.7H41.3c-4.5,0-8.1,3.6-8.1,8.1
				s3.6,8.1,8.1,8.1h7.2v30.5l7.5-9l8.8-10.5c1.4,2.6,4,4.3,7.1,4.3c3.5,0,6.6-2.3,7.6-5.5c1.1,3.2,4.1,5.5,7.6,5.5
				c4.5,0,8.1-3.6,8.1-8.1v-7.3h7.2c4.5,0,8.1-3.6,8.1-8.1s-3.6-8.1-8.1-8.1H80V9.9z"/>
			
				<linearGradient id="SVGID_00000104705946670798144080000015894229966782236062_" gradientUnits="userSpaceOnUse" x1="56.602" y1="753.9983" x2="56.602" y2="790.4974" gradientTransform="matrix(1 0 0 1 0 -744)">
				<stop  offset="0" style="stop-color:#10447F"/>
				<stop  offset="1" style="stop-color:#2A8BCC"/>
			</linearGradient>
			<path style="fill:url(#SVGID_00000104705946670798144080000015894229966782236062_);" d="M71.9,51.9c-2.1,0-3.8-1.7-3.8-3.9v-6.7
				L52.8,59.6V36.5H41.3c-2.1,0-3.8-1.7-3.8-3.9c0-2.1,1.7-3.9,3.8-3.9h19.1v9.6L75.7,21v26.9C75.8,50.2,74,51.9,71.9,51.9z"/>
			
				<linearGradient id="SVGID_00000103237090893987532660000015196674694827098755_" gradientUnits="userSpaceOnUse" x1="87.2" y1="772.8044" x2="87.2" y2="795.9078" gradientTransform="matrix(1 0 0 1 0 -744)">
				<stop  offset="0" style="stop-color:#00A9AA"/>
				<stop  offset="1" style="stop-color:#74C8DA"/>
			</linearGradient>
			<path style="fill:url(#SVGID_00000103237090893987532660000015196674694827098755_);" d="M68.1,32.7c0,2.1,1.7,3.9,3.8,3.9h11.5
				v11.6c0,2.1,1.7,3.9,3.8,3.9c2.1,0,3.8-1.7,3.8-3.9V36.5h11.5c2.1,0,3.8-1.7,3.8-3.9c0-2.1-1.7-3.9-3.8-3.9H71.9
				C69.8,28.8,68.1,30.5,68.1,32.7z"/>
			<g>
				<path class="st1" d="M7.8,94.5h0.9v3.1H7.3v-1.7H1.2v1.7h-1.4v-3.1h0.7c0.1-0.1,0.2-0.2,0.3-0.2S1,94.1,1,93.9
					c0.1-0.2,0.1-0.3,0.2-0.5s0.1-0.4,0.2-0.7c0.1-0.3,0.1-0.6,0.1-0.9s0.1-0.7,0.1-1.3c0.2-0.5,0.2-1,0.3-1.5c0-0.5,0.1-1.2,0.2-2
					h5.8L7.8,94.5L7.8,94.5z M3.3,88.3c-0.2,2.1-0.3,3.6-0.5,4.4c-0.2,0.9-0.4,1.5-0.7,1.8h4.2v-6.2C6.3,88.3,3.3,88.3,3.3,88.3z"/>
				<path class="st1" d="M11.9,94.5h3.9v1.4h-5.4v-9h5.2v1.4h-3.7v2.3h3.4V92h-3.4V94.5z"/>
				<path class="st1" d="M17.5,87h6.7v9h-1.5v-7.6H19V96h-1.5V87z"/>
				<path class="st1" d="M32.6,95.9L31.9,94h-4l-0.8,1.9h-1.6l3.6-9h1.4l3.7,9H32.6z M29.8,88.9l-1.5,3.8h3L29.8,88.9z"/>
				<path class="st1" d="M38.9,87c0.6,0,1.1,0.1,1.6,0.4s0.8,0.6,1.1,1.1s0.4,1,0.4,1.5c0,0.8-0.3,1.5-0.9,2.1s-1.3,0.8-2.2,0.8H37
					v3h-1.5v-9L38.9,87L38.9,87z M38.8,91.5c0.2,0,0.5,0,0.7-0.1s0.4-0.2,0.5-0.3c0.1-0.1,0.3-0.3,0.3-0.5c0.1-0.2,0.1-0.4,0.1-0.6
					c0-0.3-0.1-0.6-0.2-0.8c-0.1-0.2-0.3-0.4-0.6-0.6c-0.2-0.1-0.5-0.2-0.8-0.2H37v3.1H38.8z"/>
				<path class="st1" d="M112,87c0.6,0,1.1,0.1,1.6,0.4s0.8,0.6,1.1,1.1c0.3,0.5,0.4,1,0.4,1.5c0,0.8-0.3,1.5-0.9,2.1
					c-0.6,0.6-1.3,0.8-2.2,0.8h-1.9v3h-1.5v-9L112,87L112,87z M111.9,91.5c0.2,0,0.5,0,0.7-0.1c0.2-0.1,0.4-0.2,0.5-0.3
					c0.1-0.1,0.3-0.3,0.3-0.5c0.1-0.2,0.1-0.4,0.1-0.6c0-0.3-0.1-0.6-0.2-0.8c-0.1-0.2-0.3-0.4-0.6-0.6c-0.2-0.1-0.5-0.2-0.8-0.2
					h-1.8v3.1H111.9z"/>
				<path class="st1" d="M49.3,87v1.4h-2.6V96h-1.5v-7.6h-2.6V87H49.3z"/>
				<path class="st1" d="M56,95.9L55.2,94h-4l-0.8,1.9h-1.6l3.6-9h1.4l3.7,9H56z M53.2,88.9l-1.5,3.8h3L53.2,88.9z"/>
				<path class="st1" d="M69.6,95.9h-1.5l-1-6.5l-2.9,6.4h-0.4l-2.9-6.4l-1,6.5h-1.5l1.5-9h1.4L64,93l2.7-6.1h1.5L69.6,95.9z"/>
				<path class="st1" d="M72.7,94.5h3.9v1.4h-5.4v-9h5.2v1.4h-3.7v2.3h3.4V92h-3.4V94.5z"/>
				<path class="st1" d="M83.9,87h1.5v9h-1.5v-4h-4.1v3.9h-1.5v-9h1.5v3.7h4.1V87z"/>
				<path class="st1" d="M93.5,87v1.4h-2.6V96h-1.5v-7.6h-2.6V87H93.5z"/>
				<path class="st1" d="M106.3,94.5h0.9v3.1h-1.4v-1.7h-6.2v-9h1.5v7.6h3.7V87h1.5V94.5z"/>
				<path class="st1" d="M126.1,87h1.1v9h-1.5v-6.2L121,96h-1v-9h1.5v6.1L126.1,87z"/>
				<path class="st1" d="M138.8,87h1.1v9h-1.5v-6.2l-4.7,6.2h-1v-9h1.5v6.1L138.8,87z"/>
				<path class="st1" d="M148,87v1.4h-2.6V96h-1.5v-7.6h-2.6V87H148z"/>
			</g>
		</g>
	</g>
</g>
</svg>
