<svg width="68" height="75" viewBox="0 0 68 75" fill="none" xmlns="http://www.w3.org/2000/svg">
<path fill-rule="evenodd" clip-rule="evenodd" d="M12.4558 9.52297L13.9829 9.76682L15.5554 10.2106L46.9025 21.6067L48.2744 22.1664L49.5913 22.877L50.8434 23.7228L52.0204 24.6887L53.112 25.76L54.1077 26.9224L54.9965 28.1619L55.7673 29.4647L56.4083 30.817L56.9075 32.2053L57.252 33.6159L57.4287 35.035L57.987 65.9876L57.9871 65.9885L57.799 67.4921L57.4287 68.8831L56.8857 70.149L56.1797 71.2772L55.3204 72.2541L54.3183 73.0658L53.1837 73.6981L51.9283 74.1361L50.5634 74.365L49.1021 74.3698L47.557 74.1358L12.9221 66.7504L11.2299 66.3593L9.44972 65.5964L7.74804 64.4914L6.22486 63.3424L4.8338 62.0306L3.5931 60.5782L2.52043 59.008L1.63272 57.3431L0.946189 55.607L0.476119 53.8234L0.236685 52.0151L0.241339 50.206L2.99192 16.8778L3.21268 15.427L3.6421 14.118L4.2618 12.9581L5.0536 11.9539L5.99967 11.1116L7.08265 10.437L8.28569 9.93565L9.59252 9.61269L10.9875 9.47339L12.4558 9.52297ZM57.987 65.9876L57.4287 35.035L57.9834 64.3836L57.987 65.9876Z" fill="url(#paint0_linear_49_53)" fill-opacity="0.5"/>
<path fill-rule="evenodd" clip-rule="evenodd" d="M9.89805 6.66982L9.67728 8.12064L7.06721 44.0705L7.06255 45.8796L7.30193 47.6877L7.77205 49.4715L8.4586 51.2076L9.34629 52.8725L10.419 54.4427L11.6597 55.8951L13.0507 57.2069L14.5739 58.3559L16.2105 59.3205L17.9413 60.08L19.7472 60.6148L56.7876 69.0043L58.3326 69.2383L59.794 69.2335L61.1587 69.0046L62.4141 68.5666L61.1642 69.3075L60.034 69.9375L58.8398 70.646L60.0335 69.9378L60.034 69.9375L61.1642 69.3075L62.4141 68.5666L63.5488 67.9343L61.1653 69.3068L61.1647 69.3072L61.1642 69.3075L60.034 69.9375L58.8398 70.646L56.5719 71.9519L54.3588 73.2263L53.2405 73.8503L52.0085 74.2886L50.6748 74.527L49.2519 74.5509L47.7529 74.3461L12.0115 66.7931L10.2778 66.3057L8.62039 65.6019L7.05733 64.7002L5.60652 63.6202L4.28552 62.3823L3.11142 61.0072L2.1008 59.5166L1.26957 57.9322L0.632919 56.2761L0.205226 54.5704L0 52.8373L0.0298103 51.0986L3.06081 16.3509L3.29543 14.9399L3.73016 13.6615L5.93696 10.5185L6.72144 9.5238L8.35291 7.4665L10.0247 5.35838L11.7373 3.19873L10.9472 4.20087L10.3275 5.3608L9.89805 6.66982Z" fill="url(#paint1_linear_49_53)"/>
<g filter="url(#filter0_b_49_53)">
<mask id="path-3-inside-1_49_53" fill="white">
<path fill-rule="evenodd" clip-rule="evenodd" d="M19.1411 0.765891L20.6683 1.00974L22.2407 1.4535L54.6196 12.5609L55.9915 13.1206L57.3084 13.8312L58.5604 14.677L59.7374 15.6429L60.8291 16.7142L61.8248 17.8766L62.7136 19.1161L63.4844 20.4189L64.1254 21.7712L64.6245 23.1595L64.9691 24.5701L65.1458 25.9893L67.2176 60.8562L67.2177 60.8571L67.0296 62.3607L66.6593 63.7516L66.1163 65.0176L65.4102 66.1458L64.551 67.1227L63.5489 67.9344L62.4143 68.5667L61.1589 69.0046L59.794 69.2336L58.3327 69.2384L56.7876 69.0044L19.748 60.615L18.0557 60.2239L16.2756 59.461L14.5739 58.356L13.0507 57.207L11.6597 55.8952L10.419 54.4428L9.3463 52.8726L8.4586 51.2077L7.77206 49.4716L7.30199 47.688L7.06256 45.8797L7.06721 44.0706L9.67728 8.12075L9.89805 6.66993L10.3275 5.36091L10.9472 4.20097L11.739 3.19678L12.685 2.35452L13.768 1.67996L14.9711 1.17857L16.2779 0.855608L17.6729 0.716309L19.1411 0.765891ZM67.2176 60.8562L65.1458 25.9893L67.214 59.2522L67.2176 60.8562Z"/>
</mask>
<path fill-rule="evenodd" clip-rule="evenodd" d="M19.1411 0.765891L20.6683 1.00974L22.2407 1.4535L54.6196 12.5609L55.9915 13.1206L57.3084 13.8312L58.5604 14.677L59.7374 15.6429L60.8291 16.7142L61.8248 17.8766L62.7136 19.1161L63.4844 20.4189L64.1254 21.7712L64.6245 23.1595L64.9691 24.5701L65.1458 25.9893L67.2176 60.8562L67.2177 60.8571L67.0296 62.3607L66.6593 63.7516L66.1163 65.0176L65.4102 66.1458L64.551 67.1227L63.5489 67.9344L62.4143 68.5667L61.1589 69.0046L59.794 69.2336L58.3327 69.2384L56.7876 69.0044L19.748 60.615L18.0557 60.2239L16.2756 59.461L14.5739 58.356L13.0507 57.207L11.6597 55.8952L10.419 54.4428L9.3463 52.8726L8.4586 51.2077L7.77206 49.4716L7.30199 47.688L7.06256 45.8797L7.06721 44.0706L9.67728 8.12075L9.89805 6.66993L10.3275 5.36091L10.9472 4.20097L11.739 3.19678L12.685 2.35452L13.768 1.67996L14.9711 1.17857L16.2779 0.855608L17.6729 0.716309L19.1411 0.765891ZM67.2176 60.8562L65.1458 25.9893L67.214 59.2522L67.2176 60.8562Z" fill="url(#paint2_linear_49_53)" fill-opacity="0.3"/>
<path d="M19.7474 60.6149L19.8607 60.1279L19.86 60.1277L19.7474 60.6149ZM67.7167 60.8265L65.6449 25.9596L64.6467 26.0189L66.7185 60.8859L67.7167 60.8265ZM19.6341 61.1019L19.6347 61.102L19.8613 60.128L19.8607 60.1279L19.6341 61.1019ZM17.9431 60.7111L19.6348 61.1021L19.86 60.1277L18.1683 59.7368L17.9431 60.7111ZM20.6683 1.00974L20.9399 0.0473337L20.8837 0.0314665L20.826 0.0222545L20.6683 1.00974ZM19.1411 0.765891L19.2988 -0.221599L19.2372 -0.231434L19.1749 -0.233539L19.1411 0.765891ZM22.2407 1.4535L22.5652 0.507607L22.539 0.498614L22.5123 0.491087L22.2407 1.4535ZM54.6196 12.5609L54.9974 11.635L54.971 11.6243L54.9441 11.615L54.6196 12.5609ZM55.9915 13.1206L56.4663 12.2406L56.419 12.215L56.3692 12.1947L55.9915 13.1206ZM57.3084 13.8312L57.8682 13.0026L57.827 12.9747L57.7833 12.9511L57.3084 13.8312ZM58.5604 14.677L59.1948 13.904L59.1588 13.8744L59.1202 13.8483L58.5604 14.677ZM59.7374 15.6429L60.4379 14.9292L60.4062 14.898L60.3718 14.8698L59.7374 15.6429ZM60.8291 16.7142L61.5885 16.0636L61.5604 16.0308L61.5295 16.0005L60.8291 16.7142ZM61.8248 17.8766L62.6374 17.2938L62.6123 17.2588L62.5842 17.2261L61.8248 17.8766ZM62.7136 19.1161L63.5743 18.6069L63.5519 18.5691L63.5263 18.5334L62.7136 19.1161ZM63.4844 20.4189L64.388 19.9906L64.3684 19.9491L64.345 19.9097L63.4844 20.4189ZM64.1254 21.7712L65.0664 21.4329L65.0499 21.387L65.029 21.3429L64.1254 21.7712ZM64.6245 23.1595L65.596 22.9222L65.5834 22.8709L65.5656 22.8212L64.6245 23.1595ZM64.9691 24.5701L65.9614 24.4465L65.9543 24.3891L65.9405 24.3328L64.9691 24.5701ZM65.1458 25.9893L66.1439 25.9272L66.142 25.8964L66.1381 25.8657L65.1458 25.9893ZM67.2176 60.8562L66.2176 60.8584L66.2177 60.888L66.2195 60.9175L67.2176 60.8562ZM67.2177 60.8571L68.2099 60.9812L68.2215 60.8888L68.2158 60.7958L67.2177 60.8571ZM67.0296 62.3607L67.996 62.618L68.0135 62.5523L68.0219 62.4848L67.0296 62.3607ZM66.6593 63.7516L67.5784 64.1458L67.607 64.0791L67.6257 64.0089L66.6593 63.7516ZM66.1163 65.0176L66.964 65.5481L67.0049 65.4827L67.0354 65.4118L66.1163 65.0176ZM65.4102 66.1458L66.1611 66.8062L66.2148 66.7452L66.2579 66.6763L65.4102 66.1458ZM19.748 60.615L19.5228 61.5894L19.5271 61.5903L19.748 60.615ZM14.9711 1.17857L14.7311 0.207771L14.6569 0.226113L14.5864 0.255523L14.9711 1.17857ZM13.0507 57.207L12.3647 57.9346L12.4046 57.9723L12.4485 58.0054L13.0507 57.207ZM11.6597 55.8952L10.8993 56.5448L10.9344 56.5858L10.9736 56.6228L11.6597 55.8952ZM10.419 54.4428L9.59325 55.0069L9.62364 55.0514L9.65863 55.0923L10.419 54.4428ZM9.3463 52.8726L8.4639 53.3431L8.48967 53.3914L8.52058 53.4367L9.3463 52.8726ZM8.4586 51.2077L7.52867 51.5755L7.54952 51.6282L7.57619 51.6782L8.4586 51.2077ZM7.77206 49.4716L6.80508 49.7265L6.82025 49.784L6.84213 49.8394L7.77206 49.4716ZM7.30199 47.688L6.31064 47.8193L6.31893 47.8818L6.33501 47.9429L7.30199 47.688ZM7.06256 45.8797L6.06256 45.8772L6.06239 45.9444L6.07121 46.011L7.06256 45.8797ZM7.06721 44.0706L6.06984 43.9982L6.0673 44.033L6.06721 44.068L7.06721 44.0706ZM9.67728 8.12075L8.68866 7.97031L8.68275 8.00915L8.67991 8.04833L9.67728 8.12075ZM9.89805 6.66993L8.94787 6.35823L8.92194 6.43726L8.90943 6.5195L9.89805 6.66993ZM10.3275 5.36091L9.44545 4.88969L9.40443 4.96648L9.37729 5.0492L10.3275 5.36091ZM10.9472 4.20097L10.1619 3.5818L10.107 3.65148L10.0651 3.72975L10.9472 4.20097ZM11.739 3.19678L11.074 2.44988L11.0082 2.50845L10.9537 2.57761L11.739 3.19678ZM12.685 2.35452L12.1563 1.50572L12.0839 1.55086L12.0201 1.60763L12.685 2.35452ZM13.768 1.67996L13.3833 0.756916L13.3083 0.788182L13.2393 0.831152L13.768 1.67996ZM16.2779 0.855608L16.1785 -0.139443L16.1074 -0.132339L16.038 -0.115186L16.2779 0.855608ZM17.6729 0.716309L17.7066 -0.283122L17.6399 -0.285374L17.5735 -0.278743L17.6729 0.716309ZM14.5739 58.356L13.9717 59.1544L13.9998 59.1755L14.0293 59.1947L14.5739 58.356ZM64.551 67.1227L65.1804 67.8998L65.2461 67.8466L65.3019 67.7831L64.551 67.1227ZM63.5489 67.9344L64.0357 68.8079L64.1111 68.7658L64.1783 68.7114L63.5489 67.9344ZM62.4143 68.5667L62.7437 69.5109L62.8255 69.4824L62.9011 69.4402L62.4143 68.5667ZM61.1589 69.0046L61.3244 69.9909L61.4081 69.9768L61.4883 69.9488L61.1589 69.0046ZM59.794 69.2336L59.7973 70.2336L59.8789 70.2333L59.9594 70.2198L59.794 69.2336ZM58.3327 69.2384L58.1829 70.2272L58.259 70.2387L58.336 70.2384L58.3327 69.2384ZM56.7876 69.0044L56.5667 69.9797L56.602 69.9877L56.6378 69.9931L56.7876 69.0044ZM67.214 59.2522L68.214 59.25L68.214 59.22L68.2121 59.1901L67.214 59.2522ZM18.0557 60.2239L17.6618 61.1431L17.7437 61.1782L17.8305 61.1982L18.0557 60.2239ZM16.2756 59.461L15.731 60.2997L15.8029 60.3464L15.8817 60.3801L16.2756 59.461ZM20.826 0.0222545L19.2988 -0.221599L18.9835 1.75338L20.5106 1.99723L20.826 0.0222545ZM22.5123 0.491087L20.9399 0.0473337L20.3967 1.97216L21.9691 2.41591L22.5123 0.491087ZM54.9441 11.615L22.5652 0.507607L21.9163 2.39939L54.2951 13.5068L54.9441 11.615ZM56.3692 12.1947L54.9974 11.635L54.2419 13.4868L55.6137 14.0465L56.3692 12.1947ZM57.7833 12.9511L56.4663 12.2406L55.5166 14.0007L56.8336 14.7113L57.7833 12.9511ZM59.1202 13.8483L57.8682 13.0026L56.7486 14.6599L58.0007 15.5056L59.1202 13.8483ZM60.3718 14.8698L59.1948 13.904L57.9261 15.45L59.1031 16.4159L60.3718 14.8698ZM61.5295 16.0005L60.4379 14.9292L59.037 16.3566L60.1286 17.4279L61.5295 16.0005ZM62.5842 17.2261L61.5885 16.0636L60.0696 17.3647L61.0653 18.5271L62.5842 17.2261ZM63.5263 18.5334L62.6374 17.2938L61.0121 18.4594L61.901 19.6989L63.5263 18.5334ZM64.345 19.9097L63.5743 18.6069L61.853 19.6253L62.6237 20.9281L64.345 19.9097ZM65.029 21.3429L64.388 19.9906L62.5808 20.8472L63.2218 22.1995L65.029 21.3429ZM65.5656 22.8212L65.0664 21.4329L63.1844 22.1096L63.6835 23.4978L65.5656 22.8212ZM65.9405 24.3328L65.596 22.9222L63.6531 23.3968L63.9976 24.8074L65.9405 24.3328ZM66.1381 25.8657L65.9614 24.4465L63.9767 24.6937L64.1535 26.1128L66.1381 25.8657ZM68.2158 60.7958L68.2157 60.7949L66.2195 60.9175L66.2196 60.9184L68.2158 60.7958ZM68.0219 62.4848L68.2099 60.9812L66.2254 60.733L66.0374 62.2366L68.0219 62.4848ZM67.6257 64.0089L67.996 62.618L66.0633 62.1035L65.693 63.4944L67.6257 64.0089ZM67.0354 65.4118L67.5784 64.1458L65.7403 63.3574L65.1973 64.6234L67.0354 65.4118ZM66.2579 66.6763L66.964 65.5481L65.2687 64.4871L64.5626 65.6152L66.2579 66.6763ZM10.9736 56.6228L12.3647 57.9346L13.7368 56.4795L12.3457 55.1677L10.9736 56.6228ZM9.65863 55.0923L10.8993 56.5448L12.42 55.2457L11.1793 53.7933L9.65863 55.0923ZM8.52058 53.4367L9.59325 55.0069L11.2447 53.8787L10.172 52.3085L8.52058 53.4367ZM7.57619 51.6782L8.4639 53.3431L10.2287 52.4021L9.341 50.7372L7.57619 51.6782ZM6.84213 49.8394L7.52867 51.5755L9.38852 50.84L8.70199 49.1039L6.84213 49.8394ZM6.33501 47.9429L6.80508 49.7265L8.73904 49.2168L8.26897 47.4332L6.33501 47.9429ZM6.07121 46.011L6.31064 47.8193L8.29334 47.5567L8.0539 45.7485L6.07121 46.011ZM6.06721 44.068L6.06256 45.8772L8.06255 45.8823L8.06721 44.0731L6.06721 44.068ZM8.67991 8.04833L6.06984 43.9982L8.06459 44.143L10.6747 8.19316L8.67991 8.04833ZM8.90943 6.5195L8.68866 7.97031L10.6659 8.27118L10.8867 6.82037L8.90943 6.5195ZM9.37729 5.0492L8.94787 6.35823L10.8482 6.98163L11.2776 5.67261L9.37729 5.0492ZM10.0651 3.72975L9.44545 4.88969L11.2095 5.83212L11.8292 4.67219L10.0651 3.72975ZM10.9537 2.57761L10.1619 3.5818L11.7324 4.82014L12.5242 3.81595L10.9537 2.57761ZM12.0201 1.60763L11.074 2.44988L12.4039 3.94368L13.35 3.10142L12.0201 1.60763ZM13.2393 0.831152L12.1563 1.50572L13.2137 3.20333L14.2967 2.52876L13.2393 0.831152ZM14.5864 0.255523L13.3833 0.756916L14.1527 2.603L15.3558 2.10161L14.5864 0.255523ZM16.038 -0.115186L14.7311 0.207771L15.211 2.14936L16.5178 1.8264L16.038 -0.115186ZM17.5735 -0.278743L16.1785 -0.139443L16.3772 1.85066L17.7723 1.71136L17.5735 -0.278743ZM19.1749 -0.233539L17.7066 -0.283122L17.6391 1.71574L19.1074 1.76532L19.1749 -0.233539ZM15.1761 57.5577L13.6529 56.4087L12.4485 58.0054L13.9717 59.1544L15.1761 57.5577ZM65.3019 67.7831L66.1611 66.8062L64.6594 65.4853L63.8001 66.4622L65.3019 67.7831ZM64.1783 68.7114L65.1804 67.8998L63.9216 66.3456L62.9195 67.1573L64.1783 68.7114ZM62.9011 69.4402L64.0357 68.8079L63.0621 67.0609L61.9275 67.6932L62.9011 69.4402ZM61.4883 69.9488L62.7437 69.5109L62.0849 67.6225L60.8295 68.0605L61.4883 69.9488ZM59.9594 70.2198L61.3244 69.9909L60.9935 68.0184L59.6286 68.2474L59.9594 70.2198ZM58.336 70.2384L59.7973 70.2336L59.7907 68.2336L58.3294 68.2384L58.336 70.2384ZM56.6378 69.9931L58.1829 70.2272L58.4824 68.2497L56.9374 68.0157L56.6378 69.9931ZM19.5271 61.5903L56.5667 69.9797L57.0085 68.0291L19.9689 59.6397L19.5271 61.5903ZM68.2121 59.1901L66.1439 25.9272L64.1477 26.0513L66.216 59.3143L68.2121 59.1901ZM68.2176 60.854L68.214 59.25L66.214 59.2544L66.2176 60.8584L68.2176 60.854ZM14.0293 59.1947L15.731 60.2997L16.8202 58.6223L15.1185 57.5173L14.0293 59.1947ZM15.8817 60.3801L17.6618 61.1431L18.4496 59.3048L16.6695 58.5418L15.8817 60.3801ZM17.8305 61.1982L19.5228 61.5893L19.9732 59.6407L18.2809 59.2496L17.8305 61.1982Z" fill="url(#paint3_linear_49_53)" mask="url(#path-3-inside-1_49_53)"/>
</g>
<g filter="url(#filter1_d_49_53)">
<path fill-rule="evenodd" clip-rule="evenodd" d="M22.5768 29.2699L24.032 27.7119L22.3072 29.5591L22.5768 29.2699ZM57.6847 30.5464L38.101 45.0557L38.0993 45.057L37.7545 45.2702L37.3821 45.4227L36.9874 45.5155L36.5759 45.5496L36.1532 45.5262L35.725 45.4463L35.2967 45.3113L34.8743 45.1223L34.4634 44.8807L33.8531 45.6673L33.2427 46.4539L33.6605 46.639L34.0844 46.7708L34.5086 46.8478L34.9275 46.8691L35.3356 46.8335L35.7273 46.7399L36.0973 46.5873L36.4402 46.3747L55.9619 31.9015L55.9629 31.9008L57.6847 30.5464ZM23.7611 28.0024L22.3072 29.5591L22.0916 29.8864L21.9305 30.2465L21.8247 30.634L21.7747 31.0432L21.7811 31.4687L21.8442 31.9048L21.9647 32.3457L22.1428 32.7856L22.3788 33.2188L22.673 33.6393L31.7459 45.2067L32.0824 45.5915L32.4479 45.9287L32.8366 46.2167L33.2427 46.4539L33.8531 45.6673L34.4634 44.8807L34.0699 44.5879L33.6995 44.2455L33.3581 43.855L24.1485 32.1244L23.8497 31.6981L23.6095 31.2595L23.4278 30.8142L23.3042 30.3683L23.2385 29.9277L23.2303 29.498L23.2789 29.085L23.384 28.6944L23.5449 28.3317L23.7611 28.0024ZM23.7611 28.0024L24.032 27.7119L22.3072 29.5591L23.7611 28.0024Z" fill="url(#paint4_linear_49_53)"/>
<path fill-rule="evenodd" clip-rule="evenodd" d="M57.5248 26.4915L57.7851 26.8641L58.0013 27.2458L58.1732 27.6321L58.3008 28.0185L58.3837 28.4003L58.4217 28.7728L58.4144 29.1314L58.3615 29.4713L58.2625 29.7876L58.1169 30.0756L57.9245 30.3302L57.6846 30.5465L38.1005 45.0561L38.0993 45.057L37.7545 45.2702L37.3821 45.4227L36.9874 45.5155L36.5759 45.5496L36.1532 45.5262L35.7249 45.4464L35.2967 45.3113L34.8743 45.1223L34.4634 44.8807L34.0699 44.5879L35.8807 37.3229L53.5493 25.1695L53.8332 25.0117L54.1413 24.9084L54.4688 24.8579L54.8111 24.8584L55.1633 24.908L55.5209 25.0049L55.8792 25.1476L56.2339 25.3344L56.5802 25.5637L56.9138 25.8339L57.2302 26.1437L57.5248 26.4915ZM23.279 29.0848L23.384 28.6944L23.5449 28.3319L24.7232 27.2745L26.3847 27.1046L26.8206 27.2012L27.2536 27.3498L27.6781 27.5487L28.0888 27.7962L28.4802 28.0908L28.8469 28.4311L29.1835 28.8156L35.8807 37.3229L34.0699 44.5879L33.6995 44.2455L33.3581 43.855L24.1484 32.1244L23.8496 31.6982L23.6095 31.2595L23.4278 30.8143L23.3042 30.3684L23.2385 29.9277L23.2303 29.498L23.279 29.0848ZM26.3847 27.1046L25.9514 27.0618L25.5263 27.0746L25.115 27.1448L24.7232 27.2745L26.3847 27.1046ZM24.7232 27.2745L24.3569 27.4656L24.032 27.7119L23.7611 28.0024L23.5449 28.3319L24.7232 27.2745Z" fill="url(#paint5_linear_49_53)"/>
</g>
<defs>
<filter id="filter0_b_49_53" x="-5.93744" y="-12.2837" width="86.1551" height="94.5222" filterUnits="userSpaceOnUse" color-interpolation-filters="sRGB">
<feFlood flood-opacity="0" result="BackgroundImageFix"/>
<feGaussianBlur in="BackgroundImageFix" stdDeviation="6.5"/>
<feComposite in2="SourceAlpha" operator="in" result="effect1_backgroundBlur_49_53"/>
<feBlend mode="normal" in="SourceGraphic" in2="effect1_backgroundBlur_49_53" result="shape"/>
</filter>
<filter id="filter1_d_49_53" x="5.06941" y="20.2175" width="62.633" height="47.9973" filterUnits="userSpaceOnUse" color-interpolation-filters="sRGB">
<feFlood flood-opacity="0" result="BackgroundImageFix"/>
<feColorMatrix in="SourceAlpha" type="matrix" values="0 0 0 0 0 0 0 0 0 0 0 0 0 0 0 0 0 0 127 0" result="hardAlpha"/>
<feOffset dx="-3.71229" dy="8.35266"/>
<feGaussianBlur stdDeviation="6.49651"/>
<feComposite in2="hardAlpha" operator="out"/>
<feColorMatrix type="matrix" values="0 0 0 0 0.103333 0 0 0 0 0.4104 0 0 0 0 0.43 0 0 0 0.25 0"/>
<feBlend mode="normal" in2="BackgroundImageFix" result="effect1_dropShadow_49_53"/>
<feBlend mode="normal" in="SourceGraphic" in2="effect1_dropShadow_49_53" result="shape"/>
</filter>
<linearGradient id="paint0_linear_49_53" x1="1.91171" y1="78.4444" x2="54.719" y2="14.269" gradientUnits="userSpaceOnUse">
<stop offset="0.320833" stop-color="#C0EEF1"/>
<stop offset="0.58125" stop-color="#8FC3D0"/>
<stop offset="0.89375" stop-color="#2A9FAF" stop-opacity="0.79"/>
</linearGradient>
<linearGradient id="paint1_linear_49_53" x1="-15.6068" y1="12.8687" x2="58.2434" y2="86.6212" gradientUnits="userSpaceOnUse">
<stop stop-color="#CBF3FF"/>
<stop offset="0.35896" stop-color="#39B8C9"/>
<stop offset="0.683604" stop-color="#089EB3"/>
<stop offset="1" stop-color="#68A4B7"/>
</linearGradient>
<linearGradient id="paint2_linear_49_53" x1="8.97426" y1="71.8174" x2="61.7816" y2="7.64203" gradientUnits="userSpaceOnUse">
<stop offset="0.320833" stop-color="#A2F4FF"/>
<stop offset="0.685417" stop-color="#68D3E9" stop-opacity="0.9405"/>
<stop offset="0.89375" stop-color="#009BB0" stop-opacity="0.79"/>
</linearGradient>
<linearGradient id="paint3_linear_49_53" x1="6.95425" y1="62.6355" x2="65.3908" y2="13.6116" gradientUnits="userSpaceOnUse">
<stop offset="0.180663" stop-color="white" stop-opacity="0.35"/>
<stop offset="0.533255" stop-color="white" stop-opacity="0"/>
</linearGradient>
<linearGradient id="paint4_linear_49_53" x1="20.0999" y1="13.6123" x2="20.5209" y2="51.2358" gradientUnits="userSpaceOnUse">
<stop offset="0.301696" stop-color="#C5E7EE"/>
<stop offset="0.993284" stop-color="#7FB8C0" stop-opacity="0.63"/>
</linearGradient>
<linearGradient id="paint5_linear_49_53" x1="37.9935" y1="51.8992" x2="56.9469" y2="18.1584" gradientUnits="userSpaceOnUse">
<stop stop-color="white"/>
<stop offset="0.644664" stop-color="white" stop-opacity="0.57"/>
</linearGradient>
</defs>
</svg>
