<svg width="16" height="16" viewBox="0 0 16 16" fill="none" xmlns="http://www.w3.org/2000/svg">
<path fill-rule="evenodd" clip-rule="evenodd" d="M8.00006 2C4.68635 2 2.00006 4.68629 2.00006 8C2.00006 11.3137 4.68635 14 8.00006 14C11.3138 14 14.0001 11.3137 14.0001 8C14.0001 4.68629 11.3138 2 8.00006 2ZM0.500061 8C0.500061 3.85786 3.85793 0.5 8.00006 0.5C12.1422 0.5 15.5001 3.85786 15.5001 8C15.5001 12.1421 12.1422 15.5 8.00006 15.5C3.85793 15.5 0.500061 12.1421 0.500061 8Z" fill="#00A9AA"/>
<path fill-rule="evenodd" clip-rule="evenodd" d="M8.00006 6.5C8.41427 6.5 8.75006 6.83579 8.75006 7.25V11.75C8.75006 12.1642 8.41427 12.5 8.00006 12.5C7.58585 12.5 7.25006 12.1642 7.25006 11.75V7.25C7.25006 6.83579 7.58585 6.5 8.00006 6.5Z" fill="#00A9AA"/>
<path d="M9.12506 4.625C9.12506 5.24632 8.62138 5.75 8.00006 5.75C7.37874 5.75 6.87506 5.24632 6.87506 4.625C6.87506 4.00368 7.37874 3.5 8.00006 3.5C8.62138 3.5 9.12506 4.00368 9.12506 4.625Z" fill="#00A9AA"/>
</svg>
