<svg width="14" height="17" viewBox="0 0 14 17" fill="none" xmlns="http://www.w3.org/2000/svg">
<path fill-rule="evenodd" clip-rule="evenodd" d="M7.25033 2.3882C4.62697 2.3882 2.50033 4.51485 2.50033 7.1382C2.50033 7.95193 2.78845 8.8615 3.27735 9.80439C3.76269 10.7404 4.41901 11.658 5.0906 12.4735C5.76027 13.2866 6.43214 13.9827 6.93745 14.476C7.05106 14.5869 7.15601 14.6873 7.25032 14.7763C7.34464 14.6873 7.44959 14.5869 7.5632 14.476C8.06851 13.9827 8.74038 13.2866 9.41005 12.4735C10.0816 11.658 10.738 10.7404 11.2233 9.80439C11.7122 8.8615 12.0003 7.95193 12.0003 7.1382C12.0003 4.51485 9.87368 2.3882 7.25033 2.3882ZM7.25033 15.8465C6.73512 16.4476 6.73497 16.4475 6.73481 16.4474L6.73313 16.4459L6.72914 16.4425L6.71526 16.4305C6.70343 16.4202 6.68648 16.4054 6.66477 16.3863C6.62136 16.348 6.55885 16.2924 6.47997 16.2208C6.32227 16.0775 6.0988 15.87 5.83143 15.609C5.29768 15.088 4.58413 14.3491 3.86838 13.48C3.15456 12.6132 2.42546 11.6011 1.87174 10.5332C1.32158 9.4722 0.916992 8.30364 0.916992 7.1382C0.916992 3.6404 3.75252 0.804871 7.25033 0.804871C10.7481 0.804871 13.5837 3.6404 13.5837 7.1382C13.5837 8.30364 13.1791 9.4722 12.6289 10.5332C12.0752 11.6011 11.3461 12.6132 10.6323 13.48C9.91652 14.3491 9.20297 15.088 8.66922 15.609C8.40185 15.87 8.17838 16.0775 8.02068 16.2208C7.9418 16.2924 7.87929 16.348 7.83588 16.3863C7.81417 16.4054 7.79722 16.4202 7.78539 16.4305L7.77151 16.4425L7.76752 16.4459L7.76627 16.447C7.76611 16.4471 7.76553 16.4476 7.25033 15.8465ZM7.25033 15.8465L6.73481 16.4474C7.03128 16.7015 7.46906 16.7017 7.76553 16.4476L7.25033 15.8465ZM7.25033 5.55487C6.37587 5.55487 5.66699 6.26375 5.66699 7.1382C5.66699 8.01265 6.37587 8.72154 7.25033 8.72154C8.12478 8.72154 8.83366 8.01265 8.83366 7.1382C8.83366 6.26375 8.12478 5.55487 7.25033 5.55487ZM4.08366 7.1382C4.08366 5.3893 5.50142 3.97154 7.25033 3.97154C8.99923 3.97154 10.417 5.3893 10.417 7.1382C10.417 8.88711 8.99923 10.3049 7.25033 10.3049C5.50142 10.3049 4.08366 8.88711 4.08366 7.1382Z" fill="#00A9AA"/>
</svg>
