<svg width="32" height="32" viewBox="0 0 32 32" fill="none" xmlns="http://www.w3.org/2000/svg">
<path fill-rule="evenodd" clip-rule="evenodd" d="M15.7523 31.304C7.19191 31.304 0.252319 24.3644 0.252319 15.804C0.252319 7.24354 7.19191 0.303955 15.7523 0.303955C24.3127 0.303955 31.2523 7.24354 31.2523 15.804C31.2523 24.3644 24.3127 31.304 15.7523 31.304ZM15.9683 14.934C17.2374 14.934 23.4083 11.464 23.4083 11.464L23.4182 10.844C23.4182 10.1595 22.8627 9.60396 22.1763 9.60396H9.76023C9.07451 9.60396 8.51899 10.1595 8.51899 10.844V11.3964C8.51899 11.3964 14.7574 14.934 15.9683 14.934ZM8.52891 13.324C8.52829 13.324 14.7574 16.639 15.9683 16.639C17.2957 16.639 23.4083 13.324 23.4083 13.324L23.4182 20.764C23.4182 21.4484 22.8627 22.004 22.1763 22.004H9.76023C9.07513 22.004 8.51899 21.4484 8.51899 20.764L8.52891 13.324Z" fill="#97D7EF"/>
</svg>
