<svg width="31" height="32" viewBox="0 0 31 32" fill="none" xmlns="http://www.w3.org/2000/svg">
<path fill-rule="evenodd" clip-rule="evenodd" d="M15.2523 0.303955C6.96805 0.303955 0.252319 7.24354 0.252319 15.804C0.252319 24.3644 6.96805 31.304 15.2523 31.304C23.5366 31.304 30.2523 24.3644 30.2523 15.804C30.2523 7.24354 23.5366 0.303955 15.2523 0.303955ZM10.7447 8.05396C10.7891 8.09033 10.8243 8.09033 10.8595 8.08559C11.0416 8.06977 11.1977 8.11564 11.2988 8.28804C11.3166 8.31794 11.3344 8.34783 11.3523 8.37773C11.5611 8.72749 11.7704 9.07788 11.9692 9.43633C12.1131 9.69548 12.2504 9.95884 12.3879 10.2225C12.4887 10.4158 12.5896 10.6093 12.6932 10.8013C12.7333 10.8791 12.7834 10.9525 12.8335 11.0258C12.8618 11.0672 12.8901 11.1086 12.9166 11.1508C12.9805 11.2559 13.0417 11.3638 13.1014 11.4691L13.111 11.4862C13.2396 11.7376 13.2335 11.9907 13.0422 12.1916C12.8407 12.4044 12.6243 12.6059 12.4082 12.8071C12.332 12.8781 12.2558 12.949 12.1804 13.0204C12.0866 13.1093 11.9914 13.1968 11.8963 13.2843C11.7462 13.4224 11.5961 13.5603 11.4518 13.7036C11.2681 13.8871 11.2207 14.1165 11.3447 14.3584C11.3562 14.3807 11.3676 14.4029 11.3791 14.4251C11.5588 14.7729 11.7384 15.1204 11.9355 15.4609C12.7131 16.8005 13.7065 17.9393 14.9616 18.8171C15.4453 19.1572 15.9488 19.4688 16.457 19.7661C16.9361 20.0461 17.1228 19.9986 17.4948 19.57C17.6912 19.3446 17.8837 19.1171 18.0765 18.8893C18.2232 18.7159 18.37 18.5424 18.5188 18.3695C18.6014 18.2731 18.7009 18.1876 18.7974 18.1054C18.9933 17.9346 19.2076 17.9156 19.4326 18.0326C19.4467 18.0398 19.461 18.0467 19.4754 18.0537C19.525 18.0777 19.5751 18.102 19.6178 18.1339C20.0169 18.4289 20.4475 18.666 20.8776 18.9028C21.0907 19.0201 21.3037 19.1374 21.5127 19.2616C21.7282 19.3895 21.9399 19.5232 22.151 19.6566C22.2714 19.7326 22.3916 19.8085 22.5122 19.8832C22.6913 19.9923 22.7632 20.1521 22.751 20.3719C22.7173 20.9903 22.6178 21.5977 22.2704 22.1197C22.125 22.3363 21.9183 22.5261 21.7102 22.6796C21.1331 23.0971 20.4887 23.3549 19.803 23.5131C19.18 23.657 18.5586 23.6048 17.9616 23.4119C16.8091 23.0449 15.6733 22.6242 14.6279 21.9868C13.6789 21.4063 12.8156 20.7057 12.0166 19.9227C11.0049 18.9279 10.1018 17.8428 9.37168 16.6076C8.89566 15.8057 8.55585 14.9421 8.2482 14.0611C8.06146 13.5297 7.87778 13.003 7.79513 12.4399C7.70023 11.8025 7.76604 11.1888 7.9635 10.5846C8.14105 10.0389 8.36299 9.51699 8.6982 9.0504C8.96147 8.6882 9.29056 8.42248 9.71608 8.30386C9.95651 8.23813 10.1985 8.18181 10.4403 8.12552C10.5418 8.10189 10.6433 8.07827 10.7447 8.05396Z" fill="#97D7EF"/>
</svg>
