<svg width="21" height="21" viewBox="0 0 21 21" fill="none" xmlns="http://www.w3.org/2000/svg">
<path fill-rule="evenodd" clip-rule="evenodd" d="M3.84602 3.72868C3.5916 5.48793 3.34084 10.2392 7.07442 13.9728C10.808 17.7063 15.5593 17.4556 17.3185 17.2012V13.6013L13.6219 12.9852L13.0639 14.1014C12.9227 14.3837 12.6341 14.562 12.3185 14.562V13.7287C12.3185 14.562 12.3181 14.562 12.3177 14.562L12.3168 14.562L12.3149 14.562L12.3107 14.562L12.3004 14.5619C12.2928 14.5617 12.2834 14.5615 12.2725 14.5612C12.2507 14.5605 12.2224 14.5592 12.1882 14.5569C12.1198 14.5524 12.0273 14.5438 11.9142 14.5276C11.6881 14.4953 11.3784 14.4326 11.0133 14.3109C10.2802 14.0666 9.33104 13.5864 8.39591 12.6513C7.46077 11.7161 6.98062 10.767 6.73626 10.0339C6.61456 9.66877 6.55188 9.35907 6.51958 9.13299C6.50342 9.01988 6.49483 8.92739 6.49026 8.85898C6.48798 8.82476 6.48671 8.79651 6.486 8.77467C6.48565 8.76375 6.48544 8.75442 6.48532 8.74674L6.4852 8.73645L6.48517 8.73225L6.48517 8.73039L6.48516 8.72951C6.48516 8.72909 6.48516 8.72868 7.3185 8.72868H6.48516C6.48516 8.45005 6.62441 8.18986 6.85625 8.0353L8.79365 6.7437L7.58764 3.72868H3.84602ZM8.2132 9.13375L9.71815 8.13045C10.3739 7.69327 10.6338 6.85649 10.3411 6.12472L9.1351 3.10969C8.88199 2.47693 8.26914 2.06201 7.58764 2.06201H3.80248C3.04539 2.06201 2.33274 2.58798 2.20845 3.40943C1.92569 5.27826 1.54082 10.7962 5.89591 15.1513C10.251 19.5064 15.7689 19.1215 17.6377 18.8387C18.4592 18.7144 18.9852 18.0018 18.9852 17.2447V13.6013C18.9852 12.7866 18.3961 12.0912 17.5925 11.9573L13.8959 11.3412C13.1742 11.2209 12.4584 11.5854 12.1312 12.2398L11.8425 12.8173C11.7517 12.7951 11.6504 12.7665 11.5404 12.7298C11.0234 12.5575 10.306 12.2043 9.57442 11.4728C8.84289 10.7412 8.4897 10.0237 8.3174 9.50682C8.27084 9.36714 8.23732 9.24155 8.2132 9.13375Z" fill="#00A9AA"/>
</svg>
