<svg width="20" height="21" viewBox="0 0 20 21" fill="none" xmlns="http://www.w3.org/2000/svg">
<path fill-rule="evenodd" clip-rule="evenodd" d="M9.99992 3.72868C7.23849 3.72868 4.99992 5.96725 4.99992 8.72868C4.99992 9.58524 5.3032 10.5427 5.81784 11.5352C6.32873 12.5205 7.01958 13.4863 7.72653 14.3448C8.43144 15.2007 9.13867 15.9334 9.67057 16.4527C9.79017 16.5694 9.90063 16.6751 9.99992 16.7687C10.0992 16.6751 10.2097 16.5694 10.3293 16.4527C10.8612 15.9334 11.5684 15.2007 12.2733 14.3448C12.9803 13.4863 13.6711 12.5205 14.182 11.5352C14.6966 10.5427 14.9999 9.58524 14.9999 8.72868C14.9999 5.96725 12.7613 3.72868 9.99992 3.72868ZM9.99992 17.8953C9.45759 18.5281 9.45744 18.5279 9.45727 18.5278L9.45551 18.5263L9.45131 18.5226L9.43669 18.51C9.42423 18.4992 9.4064 18.4836 9.38355 18.4635C9.33785 18.4232 9.27205 18.3647 9.18902 18.2893C9.02302 18.1385 8.78778 17.92 8.50635 17.6453C7.9445 17.0968 7.1934 16.3191 6.43998 15.4043C5.68859 14.4919 4.92111 13.4265 4.33825 12.3024C3.75913 11.1855 3.33325 9.95545 3.33325 8.72868C3.33325 5.04678 6.31802 2.06201 9.99992 2.06201C13.6818 2.06201 16.6666 5.04678 16.6666 8.72868C16.6666 9.95545 16.2407 11.1855 15.6616 12.3024C15.0787 13.4265 14.3112 14.4919 13.5599 15.4043C12.8064 16.3191 12.0553 17.0968 11.4935 17.6453C11.2121 17.92 10.9768 18.1385 10.8108 18.2893C10.7278 18.3647 10.662 18.4232 10.6163 18.4635C10.5934 18.4836 10.5756 18.4992 10.5631 18.51L10.5485 18.5226L10.5443 18.5263L10.543 18.5274C10.5429 18.5275 10.5422 18.5281 9.99992 17.8953ZM9.99992 17.8953L9.45727 18.5278C9.76935 18.7953 10.2302 18.7956 10.5422 18.5281L9.99992 17.8953ZM9.99992 7.06201C9.07944 7.06201 8.33325 7.8082 8.33325 8.72868C8.33325 9.64915 9.07944 10.3953 9.99992 10.3953C10.9204 10.3953 11.6666 9.64915 11.6666 8.72868C11.6666 7.8082 10.9204 7.06201 9.99992 7.06201ZM6.66659 8.72868C6.66659 6.88773 8.15897 5.39535 9.99992 5.39535C11.8409 5.39535 13.3333 6.88773 13.3333 8.72868C13.3333 10.5696 11.8409 12.062 9.99992 12.062C8.15897 12.062 6.66659 10.5696 6.66659 8.72868Z" fill="#00A9AA"/>
</svg>
