<svg width="148" height="98" viewBox="0 0 148 98" fill="none" xmlns="http://www.w3.org/2000/svg">
<g clip-path="url(#clip0_93_443)">
<path d="M106.579 35.648C106.557 37.9611 106.322 40.2743 105.848 42.5348C105.379 44.7969 104.685 47.0059 103.778 49.1285C101.969 53.3677 99.3299 57.2236 96.0859 60.4481L94.8429 61.6282C94.4098 62.0003 93.9805 62.378 93.5438 62.7463C93.0921 63.0958 92.6498 63.4584 92.1962 63.8042L91.5 64.3021L91.151 64.5521C91.0353 64.6347 90.9195 64.7212 90.7982 64.7963C88.9019 66.0704 86.8898 67.1678 84.7844 68.0528C82.6781 68.9391 80.4899 69.6139 78.2518 70.0672C76.0128 70.5189 73.7357 70.7523 71.4522 70.7643C69.1666 70.7732 66.8856 70.558 64.6415 70.1217C62.3949 69.6838 60.1963 69.0255 58.0771 68.1562C53.8384 66.4218 49.943 63.8324 46.6786 60.5872C43.4141 57.3439 40.788 53.4467 38.9943 49.1811C37.1969 44.9175 36.2562 40.2855 36.2207 35.6461C36.2058 33.3254 36.413 31.001 36.846 28.716C37.279 26.431 37.9379 24.1893 38.8095 22.0321C40.5509 17.7158 43.1491 13.751 46.4061 10.4287C48.0355 8.76762 49.8254 7.26811 51.7479 5.95463L52.4777 5.47734L52.8435 5.23869C52.9648 5.15789 53.0862 5.07897 53.2131 5.00757L53.9653 4.56598L54.3423 4.34613L54.5308 4.23714L54.7249 4.13755L55.5014 3.73918L55.8896 3.54188L56.0837 3.44417L56.2816 3.35397L57.0767 2.99694C57.3436 2.88044 57.603 2.75078 57.8774 2.65119C62.1759 0.875456 66.8215 -0.0189891 71.4541 -0.000198264C76.0867 0.0223508 80.7155 0.960015 84.9823 2.76958C89.2509 4.56974 93.15 7.23241 96.3976 10.5358C99.6453 13.8412 102.24 17.7872 103.979 22.0847C105.724 26.3803 106.604 31.0216 106.579 35.648ZM104.198 35.648C104.171 31.3279 103.304 27.0267 101.641 23.06C99.9831 19.0913 97.538 15.4647 94.5013 12.4431C91.4645 9.42154 87.8417 7.01067 83.8997 5.3909C79.9596 3.76549 75.7059 2.94621 71.4504 2.965C67.1967 2.98755 62.9579 3.85005 59.0495 5.5074C58.8013 5.59948 58.5643 5.72162 58.3216 5.83061L57.5993 6.16321L57.4182 6.24589L57.2409 6.33796L56.8882 6.52211L56.1826 6.88853L56.0053 6.98061L55.8336 7.0802L55.4883 7.2775L54.7958 7.67211C54.6783 7.736 54.5663 7.80741 54.4562 7.87881L54.1202 8.09303L53.4483 8.51958C51.6742 9.69639 50.0183 11.0444 48.504 12.5446C45.4766 15.5474 43.0371 19.1571 41.3797 23.1069C39.7185 27.0549 38.845 31.3392 38.8077 35.6461C38.7759 39.9511 39.5804 44.2636 41.193 48.2623C42.7982 52.2628 45.2097 55.9402 48.2296 59.0219C51.2496 62.1036 54.878 64.5878 58.848 66.2733C62.8179 67.9664 67.1276 68.8345 71.4485 68.8608C75.7713 68.8815 80.0921 68.0359 84.092 66.3804C88.0937 64.7306 91.7688 62.2652 94.8074 59.1647C97.846 56.0642 100.244 52.3455 101.835 48.3186C103.432 44.2918 104.227 39.968 104.198 35.648Z" fill="#555555"/>
<path d="M75.7583 21.1041V28.8046H102.527C104.64 28.8046 106.352 30.5277 106.352 32.6548C106.352 34.782 104.64 36.5051 102.527 36.5051H91.054V48.0558C91.054 50.183 89.3425 51.9061 87.2296 51.9061C85.1168 51.9061 83.4052 50.183 83.4052 48.0558V36.5051H75.7564V48.0558C75.7564 50.183 74.0449 51.9061 71.932 51.9061C69.8192 51.9061 68.1076 50.183 68.1076 48.0558V41.3174L52.81 59.6047V36.5051H41.3368C39.224 36.5051 37.5124 34.782 37.5124 32.6548C37.5124 30.5277 39.224 28.8046 41.3368 28.8046H60.4588V38.4293L75.7583 21.1041ZM80.0082 9.854L72.5834 18.2629L64.7106 27.1792V24.5278H41.3406C36.889 24.5278 33.2681 28.1732 33.2681 32.6548C33.2681 37.1365 36.889 40.7819 41.3406 40.7819H48.5638V71.3264L56.0633 62.3613L64.8189 51.8929C66.1814 54.4447 68.8598 56.1829 71.9339 56.1829C75.482 56.1829 78.502 53.8678 79.5827 50.6584C80.6634 53.866 83.6833 56.1829 87.2315 56.1829C91.683 56.1829 95.304 52.5375 95.304 48.0558V40.7838H102.527C106.979 40.7838 110.6 37.1383 110.6 32.6567C110.6 28.1751 106.979 24.5297 102.527 24.5297H80.0082V9.854Z" fill="#555555"/>
<path d="M71.9338 51.906C69.8209 51.906 68.1094 50.1829 68.1094 48.0557V41.3173L52.8118 59.6046V36.505H41.3386C39.2257 36.505 37.5142 34.7819 37.5142 32.6547C37.5142 30.5276 39.2257 28.8045 41.3386 28.8045H60.4606V38.4292L75.7582 21.104V48.0539C75.7582 50.181 74.0466 51.906 71.9338 51.906Z" fill="url(#paint0_linear_93_443)"/>
<path d="M68.1094 32.6549C68.1094 34.7821 69.8209 36.5052 71.9338 36.5052L83.407 36.5071V48.0578C83.407 50.1849 85.1185 51.9081 87.2314 51.9081C89.3442 51.9081 91.0558 50.1849 91.0558 48.0578V36.5071H102.529C104.642 36.5071 106.353 34.7839 106.353 32.6568C106.353 30.5297 104.642 28.8066 102.529 28.8066L71.9356 28.8047C69.8228 28.8047 68.1094 30.5278 68.1094 32.6549Z" fill="url(#paint1_linear_93_443)"/>
<path d="M5.52289 92.9868L2.29763 86.4946H0L4.39181 95.3375C3.97558 96.0835 3.67322 96.0835 3.55003 96.0835C3.41191 96.0835 3.18233 96.029 3.06475 95.9896L1.98966 95.6288V97.6338L2.54773 97.8217C2.63546 97.8518 3.10208 98.0002 3.54816 98.0002C5.07867 98.0002 5.83832 96.8352 6.3796 95.6946L10.7154 86.4964H8.56897L5.52289 92.9868ZM13.1362 97.6582H15.1744V88.4093H19.891V97.6582H21.9292V86.4927H13.1362V97.6582ZM30.3003 86.4927H26.1063V97.6563H28.1445V94.1199H30.3003C32.6912 94.1199 34.4943 92.4794 34.4943 90.3053C34.4924 88.1331 32.6894 86.4927 30.3003 86.4927ZM30.3003 92.2051H28.1445V88.4093H30.3003C31.549 88.4093 32.4561 89.208 32.4561 90.3072C32.4561 91.4065 31.549 92.2051 30.3003 92.2051ZM40.4334 86.4927L35.6813 97.6563H37.7979L38.9458 94.9354H43.1342L44.282 97.6563H46.533L41.781 86.4927H40.4334ZM39.7745 93.0206L41.0381 90.0291L42.3017 93.0206H39.7745ZM56.2779 91.4008C56.6829 90.9593 56.9871 90.3542 56.9871 89.5593C56.9871 87.7836 55.507 86.4927 53.4688 86.4927H49.2748V97.6563H53.8738C56.1099 97.6563 57.7972 96.1625 57.7972 94.1819C57.7972 92.8045 57.0842 91.9232 56.2779 91.4008ZM53.8738 95.7415H51.313V92.6241H53.8738C54.9657 92.6241 55.759 93.2799 55.759 94.1819C55.759 95.0839 54.9657 95.7415 53.8738 95.7415ZM53.4688 90.7093H51.313V88.4093H53.4688C54.3535 88.4093 54.9489 88.8716 54.9489 89.5593C54.9489 90.2471 54.3535 90.7093 53.4688 90.7093ZM68.2606 97.6582H70.5116L65.7595 86.4946H64.4119L59.6599 97.6582H61.7765L65.0185 90.031L68.2606 97.6582ZM75.2916 92.8966L79.7095 92.8947V90.9818H75.2916V88.4093L81.1952 88.4075V86.4927H73.2534V97.6582H81.2363V95.7415H75.2916V92.8966ZM91.0185 91.1171H86.3019V86.4927H84.2637V97.6582H86.3019V93.0338H91.0185V97.6582H93.0567V86.4927H91.0185V91.1171ZM99.272 93.7422V86.4927H97.2338V97.6582H98.8763L103.989 90.4087V97.6582H106.025V86.4927H104.382L99.272 93.7422ZM112.24 92.8966L116.658 92.8947V90.9818H112.24V88.4093L118.144 88.4075V86.4927H110.202V97.6582H118.185V95.7415H112.24V92.8966ZM129.059 93.7422V86.4927H127.021V97.6582H128.665L133.776 90.4087V97.6582H135.814V86.4927H134.171L129.059 93.7422ZM138.707 86.4927V88.4093H142.22V97.6582H144.258V88.4093L148 88.4075V86.4927H138.707Z" fill="#555555"/>
</g>
<defs>
<linearGradient id="paint0_linear_93_443" x1="56.6362" y1="9.99823" x2="56.6362" y2="46.4974" gradientUnits="userSpaceOnUse">
<stop stop-color="#10447F"/>
<stop offset="1" stop-color="#2A8BCC"/>
</linearGradient>
<linearGradient id="paint1_linear_93_443" x1="87.2314" y1="28.8051" x2="87.2314" y2="51.9084" gradientUnits="userSpaceOnUse">
<stop stop-color="#00A9AA"/>
<stop offset="1" stop-color="#74C8DA"/>
</linearGradient>
<clipPath id="clip0_93_443">
<rect width="148" height="98" fill="white"/>
</clipPath>
</defs>
</svg>
